<?xml version="1.0" encoding="utf-8"?>
<!-- Generator: Adobe Illustrator 25.4.1, SVG Export Plug-In . SVG Version: 6.00 Build 0)  -->
<svg version="1.1" id="Capa_1" xmlns="http://www.w3.org/2000/svg" xmlns:xlink="http://www.w3.org/1999/xlink" x="0px" y="0px"
	 viewBox="0 0 1200 800" style="enable-background:new 0 0 1200 800;" xml:space="preserve">
<style type="text/css">
	.st0{fill-rule:evenodd;clip-rule:evenodd;fill:#FFFFFF;}
	.st1{fill:#FFFFFF;}
	.st2{fill:#FFDD00;}
	.st3{font-family:'FiraSans-Regular';}
	.st4{font-size:16.5482px;}
	.st5{letter-spacing:3;}
</style>
<g>
	<g>
		<g>
			<g>
				<g>
					<path class="st0" d="M216.11,452.83v-29.35h-3.78v12.02c-1.54-2.16-3.2-3.04-5.7-3.04c-4.95,0-8.48,4.37-8.48,10.44
						c0,6.15,3.45,10.35,8.48,10.35c2.83,0,4.53-1.16,5.99-4.03v3.62H216.11z M212.49,442.64c0,4.32-2.16,7.36-5.24,7.36
						c-3.12,0-5.28-2.91-5.28-7.15c0-4.2,2.25-7.19,5.36-7.19C210.33,435.65,212.49,438.56,212.49,442.64z"/>
					<path class="st0" d="M237.42,441.1c0-5-3.41-8.65-8.19-8.65c-5.36,0-9.02,4.19-9.02,10.18c0,6.69,4.03,10.64,10.85,10.64
						c2,0,3.49-0.25,5.24-0.83v-3.04c-1.71,0.58-3.04,0.83-4.7,0.83c-4.45,0-7.15-2.2-7.49-6.2h12.93
						C237.34,442.89,237.42,442.1,237.42,441.1z M233.8,440.73c0,0.37,0,0.62-0.04,0.83h-9.73c0.29-3.8,2.2-6.12,5.03-6.12
						C231.93,435.44,233.8,437.72,233.8,440.73z"/>
					<path class="st0" d="M269.26,451.91v-3.58c-2.04,0.87-3.53,1.21-5.32,1.21c-5.07,0-8.57-4.62-8.57-11.35
						c0-6.78,3.41-11.43,8.4-11.43c1.87,0,3.28,0.37,5.16,1.29v-3.7c-1.79-0.96-3.24-1.29-5.41-1.29c-7.28,0-12.35,6.28-12.35,15.22
						c0,8.86,5.07,14.97,12.43,14.97C265.6,453.24,267.26,452.87,269.26,451.91z"/>
					<path class="st0" d="M288.41,452.53v-13.35c0-2.87-0.71-4.66-2.54-5.7c-1.25-0.71-2.83-1.04-4.7-1.04
						c-2.58,0-4.86,0.54-7.19,1.75v3.16c1.99-1.21,4.45-1.91,6.69-1.91c2.87,0,4.07,1.16,4.07,3.95v0.92c-2.7,0-4.86,0.17-6.32,0.58
						c-3.87,1.04-6.03,3.41-6.03,6.57c0,3.82,3.03,5.82,8.77,5.82C283.59,453.28,286.25,452.99,288.41,452.53z M284.75,450.12
						c-1.12,0.21-2.04,0.29-3.24,0.29c-3.7,0-5.32-1-5.32-3.24c0-3.03,2.62-4.37,8.57-4.37V450.12z"/>
					<path class="st0" d="M305.7,436.57v-3.7c-0.83-0.21-1.33-0.29-2.12-0.29c-2.99,0-5.11,1.62-6.28,4.82v-4.49h-3.58v19.92h3.78
						v-9.69c0-4.2,2.33-6.99,5.82-6.99C304.16,436.15,304.74,436.24,305.7,436.57z"/>
					<path class="st0" d="M318.37,452.74v-3.08c-1.08,0.25-1.87,0.33-2.74,0.33c-2.41,0-3.28-0.96-3.28-3.66v-10.31h5.61v-3.12
						h-5.61v-6.15l-3.78,2.29v16.84c0,5.24,1.75,7.28,6.2,7.28C316.04,453.16,316.96,453.07,318.37,452.74z"/>
					<path class="st0" d="M336.78,452.53v-13.35c0-2.87-0.71-4.66-2.54-5.7c-1.25-0.71-2.83-1.04-4.7-1.04
						c-2.58,0-4.86,0.54-7.19,1.75v3.16c1.99-1.21,4.45-1.91,6.69-1.91c2.87,0,4.07,1.16,4.07,3.95v0.92c-2.7,0-4.86,0.17-6.32,0.58
						c-3.87,1.04-6.03,3.41-6.03,6.57c0,3.82,3.04,5.82,8.77,5.82C331.96,453.28,334.62,452.99,336.78,452.53z M333.12,450.12
						c-1.12,0.21-2.04,0.29-3.24,0.29c-3.7,0-5.32-1-5.32-3.24c0-3.03,2.62-4.37,8.56-4.37V450.12z"/>
					<path class="st0" d="M358.93,449.96v-17.05h-3.58v4.04c-1.04-2.95-3.08-4.45-6.11-4.45c-4.86,0-8.36,4.33-8.36,10.33
						c0,5.76,3.66,10,8.65,10c2.7,0,4.33-1.08,5.65-3.7v1.08c0,5.71-1.7,7.78-6.28,7.78c-2.29,0-4.33-0.58-6.24-1.9v3.06
						c1.58,1.16,4.12,1.83,6.9,1.83c2.66,0,4.78-0.67,6.4-1.95C358.14,457.28,358.93,454.85,358.93,449.96z M355.32,442.87
						c0,3.96-2.16,6.71-5.24,6.71c-3.16,0-5.36-2.84-5.36-6.84c0-3.92,2.2-6.92,5.11-6.92
						C353.03,435.82,355.32,438.74,355.32,442.87z"/>
					<path class="st0" d="M380.25,441.1c0-5-3.41-8.65-8.19-8.65c-5.36,0-9.02,4.19-9.02,10.18c0,6.69,4.03,10.64,10.85,10.64
						c2,0,3.49-0.25,5.24-0.83v-3.04c-1.7,0.58-3.04,0.83-4.7,0.83c-4.45,0-7.15-2.2-7.48-6.2h12.93
						C380.17,442.89,380.25,442.1,380.25,441.1z M376.64,440.73c0,0.37,0,0.62-0.04,0.83h-9.73c0.29-3.8,2.2-6.12,5.03-6.12
						C374.77,435.44,376.64,437.72,376.64,440.73z"/>
					<path class="st0" d="M400.99,452.83v-11.64c0-2.79-0.29-4.49-1-5.7c-1.08-1.91-3.2-3.04-5.82-3.04c-2.79,0-4.74,1.37-6.2,4.33
						v-3.87h-3.62v19.92h3.78v-8.94c0-2.95,0.25-4.45,0.96-5.7c0.83-1.46,2.33-2.29,4.03-2.29c1.54,0,2.83,0.75,3.49,2
						c0.46,0.83,0.58,1.79,0.58,3.74v11.18H400.99z"/>
					<path class="st0" d="M420.97,452.53v-13.35c0-2.87-0.71-4.66-2.54-5.7c-1.25-0.71-2.83-1.04-4.7-1.04
						c-2.58,0-4.86,0.54-7.19,1.75v3.16c2-1.21,4.45-1.91,6.69-1.91c2.87,0,4.07,1.16,4.07,3.95v0.92c-2.7,0-4.86,0.17-6.32,0.58
						c-3.87,1.04-6.03,3.41-6.03,6.57c0,3.82,3.04,5.82,8.77,5.82C416.15,453.28,418.81,452.99,420.97,452.53z M417.31,450.12
						c-1.12,0.21-2.04,0.29-3.24,0.29c-3.7,0-5.32-1-5.32-3.24c0-3.03,2.62-4.37,8.57-4.37V450.12z"/>
				</g>
				<g>
					<path class="st0" d="M216.58,391.48c0-3.45-1.5-6.24-4.12-7.73c-1.66-0.92-4.03-1.37-7.28-1.37h-5.57v29.35h3.95v-10.93h1.5
						c3.24,0,5.74-0.46,7.32-1.37C215.04,397.88,216.58,395.02,216.58,391.48z M212.67,391.56c0,2.25-0.92,4.08-2.54,4.99
						c-1.12,0.62-2.58,0.87-5.11,0.87h-1.45v-11.64h2.08C210.43,385.79,212.67,387.61,212.67,391.56z"/>
					<path class="st0" d="M237.89,401.75c0-6.28-3.7-10.44-9.31-10.44c-5.36,0-9.31,4.41-9.31,10.39c0,6.2,3.82,10.52,9.35,10.52
						C234.03,412.23,237.89,407.86,237.89,401.75z M234.07,401.58c0,4.37-2.12,7.36-5.28,7.36c-3.33,0.04-5.7-3.04-5.7-7.36
						c0-4.16,2.25-7.03,5.49-7.03C231.86,394.56,234.07,397.39,234.07,401.58z"/>
					<rect x="241.99" y="382.38" class="st0" width="3.78" height="29.35"/>
					<path class="st0" d="M255.2,386.24c0-0.71-0.17-1.33-0.54-1.71c-0.37-0.37-0.91-0.54-1.66-0.54c-0.71,0-1.33,0.17-1.7,0.54
						c-0.37,0.37-0.54,0.92-0.54,1.66c0,0.71,0.17,1.33,0.54,1.71c0.37,0.37,0.92,0.54,1.66,0.54c0.71,0,1.33-0.17,1.7-0.54
						C255.03,387.53,255.2,386.99,255.2,386.24z M254.87,411.73v-19.92h-3.78v19.92H254.87z"/>
					<path class="st0" d="M269.99,411.65v-3.08c-1.08,0.25-1.87,0.33-2.75,0.33c-2.41,0-3.28-0.96-3.28-3.66v-10.31h5.61v-3.12
						h-5.61v-6.15l-3.78,2.29v16.84c0,5.24,1.75,7.28,6.2,7.28C267.66,412.06,268.58,411.98,269.99,411.65z"/>
					<path class="st0" d="M289.86,382h-5.03l-5.9,6.78h2.99L289.86,382z M289.73,400.01c0-5-3.41-8.65-8.19-8.65
						c-5.36,0-9.02,4.18-9.02,10.18c0,6.69,4.03,10.64,10.85,10.64c2,0,3.49-0.25,5.24-0.83v-3.04c-1.7,0.58-3.04,0.83-4.7,0.83
						c-4.45,0-7.15-2.2-7.49-6.2h12.93C289.65,401.79,289.73,401,289.73,400.01z M286.12,399.64c0,0.37,0,0.62-0.04,0.83h-9.73
						c0.29-3.8,2.2-6.12,5.03-6.12C284.25,394.35,286.12,396.62,286.12,399.64z"/>
					<path class="st0" d="M307.39,410.94v-3.16h-0.04c-1.46,0.83-2.62,1.17-4.03,1.17c-3.91,0-6.74-3.04-6.74-7.28
						c0-4.16,2.74-7.07,6.69-7.07c1.41,0,2.7,0.42,3.91,1.25h0.04v-3.37c-1.7-0.83-3.08-1.12-4.95-1.12
						c-5.53,0-9.65,4.32-9.65,10.15c0,6.24,4.12,10.69,9.94,10.69C304.32,412.19,305.81,411.81,307.39,410.94z"/>
					<path class="st0" d="M328.62,411.73v-11.64c0-2.79-0.29-4.49-1-5.7c-1.08-1.91-3.2-3.04-5.82-3.04c-2.79,0-4.74,1.37-6.2,4.32
						v-3.87h-3.62v19.92h3.79v-8.94c0-2.95,0.25-4.45,0.96-5.7c0.83-1.46,2.33-2.29,4.03-2.29c1.54,0,2.83,0.75,3.49,2
						c0.46,0.83,0.58,1.79,0.58,3.74v11.18H328.62z"/>
					<path class="st0" d="M338.04,386.24c0-0.71-0.17-1.33-0.54-1.71c-0.37-0.37-0.92-0.54-1.66-0.54c-0.71,0-1.33,0.17-1.7,0.54
						c-0.37,0.37-0.54,0.92-0.54,1.66c0,0.71,0.17,1.33,0.54,1.71c0.37,0.37,0.92,0.54,1.66,0.54c0.71,0,1.33-0.17,1.7-0.54
						C337.87,387.53,338.04,386.99,338.04,386.24z M337.71,411.73v-19.92h-3.78v19.92H337.71z"/>
					<path class="st0" d="M356.57,410.94v-3.16h-0.04c-1.46,0.83-2.62,1.17-4.03,1.17c-3.91,0-6.74-3.04-6.74-7.28
						c0-4.16,2.74-7.07,6.69-7.07c1.41,0,2.7,0.42,3.91,1.25h0.04v-3.37c-1.7-0.83-3.08-1.12-4.95-1.12
						c-5.53,0-9.64,4.32-9.64,10.15c0,6.24,4.12,10.69,9.94,10.69C353.5,412.19,354.99,411.81,356.57,410.94z"/>
					<path class="st0" d="M375.84,411.44v-13.35c0-2.87-0.71-4.66-2.54-5.7c-1.25-0.71-2.83-1.04-4.7-1.04
						c-2.58,0-4.86,0.54-7.19,1.75v3.16c1.99-1.21,4.45-1.91,6.69-1.91c2.87,0,4.07,1.16,4.07,3.95v0.92c-2.7,0-4.86,0.17-6.32,0.58
						c-3.87,1.04-6.03,3.41-6.03,6.57c0,3.82,3.04,5.82,8.77,5.82C371.02,412.19,373.68,411.9,375.84,411.44z M372.18,409.03
						c-1.12,0.21-2.04,0.29-3.24,0.29c-3.7,0-5.32-1-5.32-3.24c0-3.03,2.62-4.37,8.56-4.37V409.03z"/>
				</g>
				<g>
					<path class="st0" d="M218.24,360.41v-19.13h-3.95v19.13c0,5.11-1.54,7.11-5.4,7.11c-3.62,0-5.32-2.29-5.32-7.07v-19.17h-3.95
						v19.17c0,3.62,0.62,5.82,2.12,7.61c1.7,2.04,4.12,3.08,7.19,3.08c3.66,0,6.49-1.46,7.98-4.03
						C217.83,365.52,218.24,363.32,218.24,360.41z"/>
					<path class="st0" d="M240.68,370.63v-11.64c0-2.79-0.29-4.49-1-5.7c-1.08-1.91-3.2-3.04-5.82-3.04c-2.79,0-4.74,1.37-6.2,4.32
						v-3.87h-3.62v19.92h3.78v-8.94c0-2.95,0.25-4.45,0.96-5.7c0.83-1.46,2.33-2.29,4.03-2.29c1.54,0,2.83,0.75,3.49,2
						c0.46,0.83,0.58,1.79,0.58,3.74v11.18H240.68z"/>
					<path class="st0" d="M250.1,345.15c0-0.71-0.17-1.33-0.54-1.7c-0.37-0.37-0.91-0.54-1.66-0.54c-0.71,0-1.33,0.17-1.71,0.54
						c-0.37,0.37-0.54,0.92-0.54,1.66c0,0.71,0.17,1.33,0.54,1.71c0.37,0.37,0.92,0.54,1.66,0.54c0.71,0,1.33-0.17,1.7-0.54
						C249.93,346.43,250.1,345.89,250.1,345.15z M249.77,370.63v-19.92h-3.78v19.92H249.77z"/>
					<path class="st0" d="M271.92,350.72h-4.2l-5.28,16.09l-5.2-16.09h-4.16l3.2,9.23c1.29,3.66,2.75,7.19,4.41,10.69h3.49
						c1.21-2.41,3.62-8.11,4.82-11.52L271.92,350.72z"/>
					<path class="st0" d="M291.32,358.91c0-5-3.41-8.65-8.19-8.65c-5.36,0-9.02,4.18-9.02,10.18c0,6.69,4.03,10.64,10.85,10.64
						c1.99,0,3.49-0.25,5.24-0.83v-3.04c-1.7,0.58-3.03,0.83-4.7,0.83c-4.45,0-7.15-2.2-7.49-6.2h12.93
						C291.24,360.7,291.32,359.91,291.32,358.91z M287.7,358.54c0,0.37,0,0.62-0.04,0.83h-9.73c0.29-3.8,2.2-6.12,5.03-6.12
						C285.83,353.25,287.7,355.52,287.7,358.54z"/>
					<path class="st0" d="M307.4,354.38v-3.7c-0.83-0.21-1.33-0.29-2.12-0.29c-2.99,0-5.11,1.62-6.28,4.82v-4.49h-3.57v19.92h3.78
						v-9.69c0-4.2,2.33-6.99,5.82-6.99C305.86,353.96,306.44,354.04,307.4,354.38z"/>
					<path class="st0" d="M322.94,365.39c0-2.54-1.58-4.32-5.2-5.86c-3.95-1.66-4.74-2.24-4.74-3.7c0-1.5,1.41-2.5,3.62-2.5
						c1.79,0,3.41,0.25,5.61,0.87v-3.12c-2.2-0.58-3.95-0.83-5.99-0.83c-4.32,0-7.03,2.08-7.03,5.41c0,2.54,1.5,4.12,5.61,5.86
						c3.33,1.41,4.16,2.16,4.16,3.7c0,1.83-1.41,2.79-4.16,2.79c-1.83,0-3.83-0.33-5.4-0.87v3.12c1.91,0.54,4.07,0.83,6.19,0.83
						C320.15,371.09,322.94,368.93,322.94,365.39z"/>
					<path class="st0" d="M331.23,345.15c0-0.71-0.17-1.33-0.54-1.7c-0.37-0.37-0.91-0.54-1.66-0.54c-0.71,0-1.33,0.17-1.7,0.54
						c-0.37,0.37-0.54,0.92-0.54,1.66c0,0.71,0.17,1.33,0.54,1.71c0.37,0.37,0.91,0.54,1.66,0.54c0.71,0,1.33-0.17,1.7-0.54
						C331.07,346.43,331.23,345.89,331.23,345.15z M330.9,370.63v-19.92h-3.78v19.92H330.9z"/>
					<path class="st0" d="M352.97,370.63v-29.35h-3.78v12.02c-1.54-2.16-3.2-3.04-5.7-3.04c-4.95,0-8.48,4.37-8.48,10.44
						c0,6.15,3.45,10.35,8.48,10.35c2.83,0,4.53-1.16,5.99-4.03v3.62H352.97z M349.35,360.45c0,4.32-2.16,7.36-5.24,7.36
						c-3.12,0-5.28-2.91-5.28-7.15c0-4.2,2.24-7.19,5.36-7.19C347.19,353.46,349.35,356.37,349.35,360.45z"/>
					<path class="st0" d="M372.95,370.34V357c0-2.87-0.71-4.66-2.54-5.7c-1.25-0.71-2.83-1.04-4.7-1.04c-2.58,0-4.86,0.54-7.19,1.75
						v3.16c2-1.21,4.45-1.91,6.69-1.91c2.87,0,4.07,1.16,4.07,3.95v0.92c-2.7,0-4.86,0.17-6.32,0.58c-3.87,1.04-6.03,3.41-6.03,6.57
						c0,3.82,3.04,5.82,8.77,5.82C368.13,371.09,370.79,370.8,372.95,370.34z M369.29,367.93c-1.12,0.21-2.04,0.29-3.24,0.29
						c-3.7,0-5.32-1-5.32-3.24c0-3.04,2.62-4.37,8.56-4.37V367.93z"/>
					<path class="st0" d="M395.02,370.63v-29.35h-3.78v12.02c-1.54-2.16-3.2-3.04-5.7-3.04c-4.95,0-8.48,4.37-8.48,10.44
						c0,6.15,3.45,10.35,8.48,10.35c2.83,0,4.53-1.16,5.99-4.03v3.62H395.02z M391.4,360.45c0,4.32-2.16,7.36-5.24,7.36
						c-3.12,0-5.28-2.91-5.28-7.15c0-4.2,2.25-7.19,5.36-7.19C389.24,353.46,391.4,356.37,391.4,360.45z"/>
				</g>
			</g>
			<g>
				<path class="st0" d="M90.09,382.15l-6.05-22.6l22.16,6.27C99.15,369.29,93.45,375.06,90.09,382.15z M88.76,408.75l-20.26-11.7
					l20.1-11.23c-1.2,3.52-1.85,7.3-1.85,11.23C86.74,401.16,87.45,405.1,88.76,408.75z M106.63,428.51l-22.6,6.05l6.27-22.16
					C93.76,419.44,99.54,425.14,106.63,428.51z M133.23,429.84l-11.69,20.26L110.3,430c3.52,1.2,7.3,1.85,11.23,1.85
					C125.64,431.85,129.58,431.14,133.23,429.84z M152.98,411.96l6.05,22.6l-22.16-6.27C143.92,424.83,149.61,419.06,152.98,411.96z
					 M154.31,385.36l20.26,11.7l-20.1,11.23c1.2-3.52,1.85-7.3,1.85-11.23C156.33,392.96,155.62,389.02,154.31,385.36z
					 M136.44,365.61l22.6-6.05l-6.27,22.16C149.3,374.68,143.53,368.98,136.44,365.61z M121.53,344.02l11.23,20.09
					c-3.52-1.2-7.3-1.85-11.23-1.85c-4.1,0-8.04,0.71-11.7,2.01L121.53,344.02z"/>
				<path class="st0" d="M138.42,386.3c0.16,0.08,0.5,0.23,0.79,0.21c0.4-0.03,1.02-0.51,1.07-1.36c0.05-0.85-0.3-1.57-0.86-1.76
					c-0.55-0.2-2.34-0.94-2.27-2.46c0.04-1.01,0.48-1.54,0.64-1.86c0.15-0.32-0.41-0.95,0.07-1.59c0.48-0.64,1.48-1,1.72-1.42
					c0.08,0.41,0.6,1.26,0.45,1.95c-0.15,0.69-0.6,1.09-1.03,1.22c-0.43,0.13-0.78-0.06-1.04,0.57c-0.26,0.63-0.68,1.77,0.67,2.5
					c1.35,0.73,2.37,0.76,2.37,2.83c0,1.56-1.22,2.17-1.74,2.17c-0.38,0-0.75-0.11-0.93-0.17c-0.44,1.84-2.07,2.09-1.83,2.75
					c0.5,1.36,2.13,0.06,2.13,0.06l-0.19,4.65h-3.19c0,0-0.02-0.54,0-1.01c0.02-0.47,0.48-0.59,0.82-0.59c0.35,0,0.61-0.05,1-0.09
					c0.18-0.4-0.02-1.53-0.02-1.53s-2.57,1.67-3.77-0.13c-1.2-1.81-1.02-2.99-0.62-3.59c0.5-0.76,1.74-0.9,2.34-0.83
					c-0.53-1.28-1.64-1.85-2.36-1.85c-0.72,0-2.59,0.4-3.33-1.24c-0.32-0.71-0.26-1.54-0.05-2.32c-2.74-1.48-3.13-4.41-3.2-5.04
					c-0.07-0.64-0.82-0.56-0.82-0.56v-1.69c0,0,0.37-0.15,0.86-0.14c0.49,0.01,1,0.72,0.98,1.51c-0.01,0.68,0.07,1.71,0.74,2.51
					c0.67,0.8,2.46,1.06,2.46,1.06c0.88,0.23,1.49-0.11,2.61-1.11c-1,0.35-1.94,0.04-1.94,0.04l-0.99-2.45c0,0,1.38-0.39,1.82-0.61
					c0.44-0.22,1.01-0.79,0.99-1.34c0.4-0.04,1.54,0.18,2.39,0.96c0.55,0.58,1.86,0.93,1.86,0.93s-1.6,4.6-1.71,6.04
					c-0.11,1.44,0.23,1.85,0.95,2.28C136.93,384.2,138.35,384.91,138.42,386.3z M133.89,386.32c-0.36-0.15-0.71-0.49-1.93-0.49
					c-1.22,0-2.98,0.78-2.98,1.91c0,1.13,0.4,1.67,0.4,1.67s-1.39,0.36-1.69-0.07v-1.26c0-0.35-0.45-0.76-0.93-0.76h-0.79v3.41
					l5.1,0.1c0,0-0.05-1.83,0.94-1.77C131.83,388.16,131.63,386.77,133.89,386.32z M124.25,379.55c0,0,0.41-0.15,0.71-0.17
					c0.3-0.02,0.59,0.42,0.66,1c0.07,0.58,0.23,1.06,0.95,1.17c0.71,0.1,1.99,0.16,1.99,0.16s-0.14,1.11,0.11,1.72
					c-0.99-0.2-2.45-0.62-2.84-0.96c-0.38-0.34-0.88-1.12-1.58-0.9V379.55z"/>
				<path class="st0" d="M113.67,413.16c0.16,0.08,0.5,0.23,0.79,0.21c0.39-0.03,1.02-0.51,1.07-1.36c0.05-0.85-0.3-1.57-0.86-1.77
					c-0.55-0.2-2.34-0.94-2.27-2.46c0.04-1.01,0.48-1.54,0.64-1.86c0.15-0.32-0.41-0.95,0.07-1.59c0.48-0.64,1.48-1,1.72-1.42
					c0.08,0.41,0.6,1.26,0.45,1.95c-0.15,0.69-0.6,1.09-1.03,1.22c-0.43,0.13-0.78-0.06-1.04,0.57c-0.26,0.63-0.68,1.77,0.67,2.5
					c1.35,0.73,2.37,0.76,2.37,2.83c0,1.56-1.22,2.17-1.74,2.17c-0.38,0-0.75-0.11-0.93-0.17c-0.43,1.84-2.07,2.08-1.82,2.75
					c0.5,1.36,2.13,0.07,2.13,0.07l-0.19,4.65h-3.19c0,0-0.02-0.54,0-1.01c0.02-0.47,0.48-0.59,0.83-0.59c0.35,0,0.61-0.05,1-0.08
					c0.18-0.4-0.02-1.53-0.02-1.53s-2.57,1.67-3.77-0.13c-1.19-1.81-1.02-2.99-0.62-3.59c0.5-0.76,1.74-0.9,2.34-0.83
					c-0.54-1.28-1.64-1.85-2.36-1.85c-0.72,0-2.59,0.4-3.33-1.24c-0.32-0.71-0.25-1.54-0.05-2.32c-2.74-1.48-3.13-4.41-3.2-5.04
					c-0.07-0.64-0.82-0.56-0.82-0.56v-1.69c0,0,0.37-0.15,0.86-0.14c0.49,0.01,1,0.72,0.98,1.51c-0.01,0.68,0.07,1.71,0.74,2.51
					c0.67,0.79,2.46,1.05,2.46,1.05c0.88,0.23,1.49-0.11,2.61-1.11c-1,0.36-1.94,0.04-1.94,0.04l-0.99-2.45c0,0,1.38-0.39,1.82-0.61
					c0.44-0.22,1.01-0.79,0.99-1.34c0.41-0.04,1.54,0.18,2.39,0.96c0.55,0.58,1.86,0.93,1.86,0.93s-1.61,4.6-1.71,6.04
					c-0.11,1.44,0.23,1.85,0.95,2.28C112.17,411.06,113.6,411.77,113.67,413.16z M109.13,413.18c-0.36-0.15-0.71-0.49-1.93-0.49
					c-1.22,0-2.98,0.77-2.98,1.91c0,1.14,0.4,1.67,0.4,1.67s-1.39,0.36-1.69-0.07v-1.26c0-0.35-0.45-0.76-0.93-0.76h-0.79v3.41
					l5.1,0.1c0,0-0.05-1.83,0.94-1.77C107.07,415.02,106.87,413.63,109.13,413.18z M99.5,406.41c0,0,0.41-0.15,0.71-0.17
					c0.3-0.02,0.59,0.42,0.66,1c0.06,0.58,0.23,1.06,0.95,1.17c0.71,0.1,1.99,0.16,1.99,0.16s-0.14,1.11,0.11,1.72
					c-0.99-0.21-2.45-0.62-2.84-0.96c-0.38-0.34-0.88-1.12-1.58-0.9V406.41z"/>
				<path class="st1" d="M89.89,397.06h31.65v-31.65C104.06,365.41,89.89,379.58,89.89,397.06z M117.88,393.8H112v-3.2
					c0-0.81-0.65-1.46-1.46-1.46c-0.81,0-1.46,0.65-1.46,1.46v3.2h-5.88l0.01-5.59l2.9-2.93v-4.15l-1.03-1.03l-0.01-4.83h2.34v2.23
					h1.95v-3.34h2.34v3.34h1.95v-2.23H116l0.01,4.83l-1.03,1.03v4.15l2.9,2.93V393.8z"/>
				<path class="st1" d="M121.53,397.06l0,31.65c17.48,0,31.65-14.17,31.65-31.65H121.53z M139.19,418.94h-5.88v-3.2
					c0-0.81-0.65-1.46-1.46-1.46c-0.81,0-1.46,0.65-1.46,1.46v3.2h-5.88l0.01-5.59l2.9-2.93v-4.15l-1.03-1.03l-0.01-4.83h2.34v2.23
					h1.95v-3.34h2.34v3.34h1.95v-2.23h2.34l0.01,4.83l-1.03,1.03v4.15l2.9,2.93V418.94z"/>
				<path class="st0" d="M63.5,397.06c0-32.05,25.98-58.03,58.03-58.03c32.05,0,58.03,25.98,58.03,58.03
					c0,32.05-25.98,58.03-58.03,58.03C89.48,455.09,63.5,429.11,63.5,397.06z M65.76,397.06c0-30.8,24.97-55.78,55.78-55.78
					c30.81,0,55.78,24.97,55.78,55.78c0,30.81-24.97,55.78-55.78,55.78C90.73,452.84,65.76,427.86,65.76,397.06z"/>
			</g>
		</g>
	</g>
	<path class="st1" d="M962.78,431h5.35v-1.95h-5.35v-4.66h6.12l0.28-1.97h-8.88v15.44h9.01v-1.97h-6.53V431z M1056.23,377.49
		c0-1.64-0.12-3.69-0.34-6.13l4.71,13.14h3.23v-15.44h-2.21v7.03c0,1.19,0.03,2.23,0.1,3.12c0.06,0.89,0.15,1.88,0.25,2.99
		l-4.71-13.14h-3.23v15.44h2.21V377.49z M963.74,384.79c1.07,0,1.99-0.23,2.76-0.68c0.77-0.46,1.36-1.09,1.77-1.89
		c0.4-0.81,0.61-1.73,0.61-2.78v-10.38h-2.51v9.89c0,1.28-0.21,2.24-0.63,2.85c-0.42,0.62-1.09,0.93-2,0.93
		c-0.9,0-1.56-0.31-1.98-0.93c-0.42-0.62-0.63-1.57-0.63-2.85v-9.89h-2.48v10.38c0,1.63,0.45,2.93,1.34,3.89
		C960.88,384.3,962.13,384.79,963.74,384.79 M967.57,402.77c0,1.19,0.03,2.23,0.1,3.12c0.07,0.89,0.15,1.88,0.25,2.99l-4.71-13.14
		h-3.23v15.44h2.21v-7.01c0-1.64-0.11-3.69-0.34-6.13l4.71,13.14h3.23v-15.44h-2.2V402.77z M975.6,409.19v1.99h8.9v-1.99h-3.21
		v-11.48h3.21v-1.97h-8.9v1.97h3.21v11.48H975.6z M982.67,435.72c-0.51,0.23-1.12,0.35-1.83,0.35c-1.24,0-2.23-0.48-2.98-1.44
		c-0.74-0.96-1.11-2.46-1.11-4.49c0-2.06,0.38-3.57,1.13-4.53c0.76-0.96,1.73-1.44,2.93-1.44c1.14,0,2.16,0.38,3.06,1.14l1.28-1.61
		c-0.63-0.54-1.28-0.93-1.97-1.19c-0.68-0.25-1.51-0.38-2.48-0.38c-1.21,0-2.32,0.31-3.32,0.94c-1,0.63-1.79,1.54-2.37,2.75
		c-0.58,1.21-0.87,2.65-0.87,4.32c0,1.7,0.28,3.15,0.85,4.36c0.57,1.21,1.34,2.12,2.34,2.74c1,0.62,2.13,0.93,3.4,0.93
		c1.88,0,3.43-0.61,4.62-1.83l-1.2-1.59C983.68,435.16,983.18,435.48,982.67,435.72 M952.72,382.53h-6.53v-4.9h5.35v-1.95h-5.35
		v-4.66h6.12l0.28-1.97h-8.88v15.44h9.01V382.53z M943.71,424.54h4.45v13.34h2.48v-13.34h4.26l0.26-2.1h-11.45V424.54z
		 M1031.83,382.53h-6.53v-4.9h5.35v-1.95h-5.35v-4.66h6.12l0.28-1.97h-8.88v15.44h9.01V382.53z M1016.28,409.22h-6.53v-4.9h5.35
		v-1.95h-5.35v-4.65h6.12l0.28-1.97h-8.88v15.44h9.01V409.22z M995.87,384.79c1.81,0,3.2-0.72,4.16-2.17
		c0.96-1.45,1.44-3.4,1.44-5.84c0-2.47-0.48-4.43-1.44-5.87c-0.96-1.44-2.35-2.16-4.16-2.16c-1.81,0-3.2,0.73-4.16,2.19
		c-0.96,1.46-1.44,3.42-1.44,5.87c0,2.47,0.48,4.43,1.44,5.85C992.67,384.07,994.06,384.79,995.87,384.79 M993.54,372.25
		c0.48-0.98,1.26-1.47,2.33-1.47c1.07,0,1.85,0.49,2.33,1.47c0.48,0.99,0.73,2.49,0.73,4.52c0,2.03-0.24,3.54-0.73,4.52
		c-0.49,0.98-1.26,1.48-2.33,1.48c-1.06,0-1.83-0.49-2.32-1.48c-0.49-0.98-0.74-2.48-0.74-4.5
		C992.81,374.75,993.05,373.24,993.54,372.25 M948.81,411.48c1.07,0,1.99-0.23,2.76-0.68c0.77-0.45,1.36-1.08,1.77-1.89
		c0.41-0.81,0.61-1.73,0.61-2.77v-10.39h-2.5v9.89c0,1.28-0.21,2.23-0.63,2.85c-0.42,0.62-1.09,0.93-2,0.93
		c-0.9,0-1.56-0.31-1.98-0.93c-0.42-0.62-0.63-1.57-0.63-2.85v-9.89h-2.48v10.39c0,1.62,0.45,2.92,1.34,3.89
		C945.94,410.99,947.19,411.48,948.81,411.48 M1025.21,404.83h1.6l3.72,6.36h2.89l-4.19-6.71c1.01-0.33,1.83-0.85,2.44-1.57
		c0.61-0.72,0.92-1.61,0.92-2.68c0-2.99-1.92-4.48-5.76-4.48h-4.11v15.44h2.48V404.83z M1025.21,397.67h1.78
		c1.03,0,1.79,0.2,2.28,0.61c0.49,0.4,0.74,1.05,0.74,1.95c0,0.94-0.25,1.63-0.75,2.06c-0.5,0.43-1.23,0.65-2.2,0.65h-1.84V397.67z
		 M1063,397.71v-1.97h-8.9v1.97h3.21v11.48h-3.21v1.99h8.9v-1.99h-3.21v-11.48H1063z M1072.46,411.18h2.48v-13.34h4.26l0.26-2.11
		h-11.45v2.11h4.45V411.18z M1074.63,431.25h2.5v4.25c-0.71,0.43-1.53,0.65-2.44,0.65c-1.2,0-2.09-0.47-2.67-1.42
		c-0.58-0.95-0.87-2.48-0.87-4.6c0-2.06,0.37-3.57,1.1-4.53c0.73-0.96,1.67-1.44,2.81-1.44c0.57,0,1.09,0.1,1.55,0.3
		c0.46,0.2,0.92,0.52,1.38,0.95l1.39-1.5c-0.61-0.61-1.26-1.06-1.94-1.35c-0.68-0.29-1.5-0.44-2.45-0.44
		c-1.19,0-2.27,0.31-3.24,0.92c-0.98,0.61-1.75,1.52-2.33,2.73c-0.58,1.21-0.87,2.66-0.87,4.37c0,2.62,0.52,4.62,1.57,5.99
		c1.05,1.37,2.53,2.05,4.44,2.05c0.97,0,1.85-0.12,2.64-0.37c0.79-0.25,1.57-0.59,2.32-1.04v-7.5h-5.18L1074.63,431.25z
		 M1089.82,429.75l-3.49-7.32h-2.74l4.94,9.56v5.89h2.48v-5.91l4.94-9.53h-2.61L1089.82,429.75z M1058.34,422.12
		c-1.81,0-3.2,0.73-4.16,2.19c-0.96,1.46-1.44,3.42-1.44,5.87c0,2.47,0.48,4.43,1.44,5.85c0.96,1.42,2.35,2.14,4.16,2.14
		c1.81,0,3.2-0.72,4.16-2.17c0.96-1.45,1.44-3.39,1.44-5.84c0-2.48-0.48-4.43-1.44-5.88
		C1061.54,422.84,1060.16,422.12,1058.34,422.12 M1060.68,434.67c-0.48,0.98-1.26,1.48-2.33,1.48c-1.06,0-1.83-0.49-2.32-1.48
		c-0.49-0.98-0.74-2.48-0.74-4.5c0-2.05,0.24-3.56,0.73-4.55c0.49-0.98,1.26-1.48,2.33-1.48c1.07,0,1.85,0.49,2.33,1.48
		c0.49,0.99,0.73,2.49,0.73,4.52C1061.41,432.18,1061.16,433.69,1060.68,434.67 M984.16,376.21c0.61-0.72,0.92-1.61,0.92-2.69
		c0-2.98-1.92-4.47-5.76-4.47h-4.11v15.44h2.48v-6.36h1.6l3.73,6.36h2.89l-4.2-6.71C982.74,377.45,983.55,376.93,984.16,376.21
		 M977.7,376.24v-5.26h1.78c1.03,0,1.79,0.2,2.28,0.61c0.49,0.4,0.74,1.05,0.74,1.95c0,0.94-0.25,1.63-0.75,2.06
		c-0.5,0.43-1.24,0.65-2.2,0.65H977.7z M1041.33,369.05l-4.71,15.44h2.55l1.03-3.72h5.27l1.03,3.72h2.63l-4.71-15.44H1041.33z
		 M1040.71,378.77l2.12-7.7l2.12,7.7H1040.71z M1115.95,395.43c-1.81,0-3.2,0.73-4.16,2.19c-0.96,1.46-1.44,3.42-1.44,5.87
		c0,2.48,0.48,4.43,1.44,5.85c0.96,1.42,2.35,2.14,4.16,2.14c1.81,0,3.2-0.72,4.16-2.17c0.96-1.45,1.44-3.39,1.44-5.84
		c0-2.48-0.48-4.44-1.44-5.87C1119.15,396.15,1117.77,395.43,1115.95,395.43 M1118.29,407.98c-0.49,0.98-1.26,1.48-2.33,1.48
		c-1.06,0-1.83-0.49-2.32-1.48c-0.49-0.99-0.74-2.48-0.74-4.5c0-2.04,0.24-3.56,0.73-4.54c0.48-0.98,1.26-1.48,2.33-1.48
		c1.07,0,1.85,0.49,2.33,1.48c0.48,0.99,0.73,2.49,0.73,4.52S1118.77,407,1118.29,407.98 M1089.82,403.06l-3.49-7.32h-2.74
		l4.94,9.56v5.89h2.48v-5.91l4.94-9.53h-2.61L1089.82,403.06z M1136.24,397.71l0.26-1.97h-9.07v15.44h2.48v-6.58h5.57v-1.97h-5.57
		v-4.92H1136.24z M1014.78,429.46c0,1.19,0.03,2.23,0.1,3.12c0.06,0.89,0.15,1.88,0.25,2.99l-4.71-13.14h-3.23v15.44h2.2v-7.01
		c0-1.64-0.11-3.69-0.34-6.13l4.71,13.14h3.23v-15.44h-2.21V429.46z M996.15,408.72l-3.49-12.98H990l4.69,15.44h2.83l4.69-15.44
		h-2.53L996.15,408.72z M1042.3,422.43h-2.46v15.44h8.82l0.28-2.17h-6.63V422.43z M998.34,428.72h-4.84v-6.29h-2.48v15.44h2.48
		v-7.03h4.84v7.03h2.48v-15.44h-2.48V428.72z M1045.25,408.79c-0.58,0.43-1.31,0.65-2.19,0.65c-1.6,0-2.95-0.54-4.07-1.61
		l-1.37,1.59c1.34,1.37,3.15,2.06,5.44,2.06c1.17,0,2.18-0.19,3.03-0.58c0.85-0.39,1.5-0.93,1.95-1.63c0.45-0.7,0.68-1.51,0.68-2.44
		c0-1.34-0.38-2.36-1.12-3.06c-0.75-0.7-1.84-1.28-3.26-1.72c-0.9-0.28-1.59-0.54-2.09-0.77c-0.49-0.23-0.84-0.49-1.05-0.77
		c-0.21-0.28-0.31-0.63-0.31-1.03c0-0.64,0.25-1.13,0.74-1.48c0.49-0.34,1.14-0.51,1.94-0.51c1.31,0,2.47,0.46,3.49,1.37l1.31-1.54
		c-1.31-1.24-2.96-1.86-4.94-1.86c-0.97,0-1.84,0.18-2.61,0.53c-0.77,0.35-1.37,0.84-1.81,1.48c-0.43,0.63-0.65,1.36-0.65,2.18
		c0,1.15,0.39,2.08,1.16,2.77c0.77,0.7,1.97,1.31,3.62,1.81c0.8,0.25,1.41,0.5,1.84,0.75c0.43,0.25,0.73,0.53,0.91,0.84
		c0.18,0.31,0.27,0.7,0.27,1.16C1046.12,407.75,1045.83,408.36,1045.25,408.79 M1028.06,422.12c-1.81,0-3.2,0.73-4.16,2.19
		c-0.96,1.46-1.44,3.42-1.44,5.87c0,2.47,0.48,4.43,1.44,5.85c0.96,1.42,2.35,2.14,4.16,2.14c1.81,0,3.2-0.72,4.16-2.17
		c0.96-1.45,1.44-3.39,1.44-5.84c0-2.48-0.48-4.43-1.44-5.88C1031.26,422.84,1029.87,422.12,1028.06,422.12 M1030.39,434.67
		c-0.48,0.98-1.26,1.48-2.33,1.48c-1.05,0-1.83-0.49-2.32-1.48c-0.49-0.98-0.74-2.48-0.74-4.5c0-2.05,0.24-3.56,0.73-4.55
		c0.48-0.98,1.26-1.48,2.33-1.48c1.07,0,1.85,0.49,2.33,1.48c0.48,0.99,0.73,2.49,0.73,4.52
		C1031.12,432.18,1030.88,433.69,1030.39,434.67 M1011.64,369.05h-4.09v15.44h2.46v-5.51h1.8c1.78,0,3.19-0.41,4.22-1.24
		c1.03-0.83,1.54-2.11,1.54-3.84c0-1.61-0.51-2.82-1.54-3.64C1015,369.46,1013.54,369.05,1011.64,369.05 M1014.16,376.3
		c-0.55,0.48-1.32,0.72-2.32,0.72h-1.82V371h1.8c2.11,0,3.17,0.97,3.17,2.91C1014.98,375.03,1014.71,375.83,1014.16,376.3"/>
	<polygon class="st2" points="915.69,397.3 896.88,397.3 896.88,378.49 884.55,378.49 884.55,397.3 865.74,397.3 865.74,409.63 
		884.55,409.63 884.55,428.44 896.88,428.44 896.88,409.63 915.69,409.63 	"/>
	<path class="st1" d="M825.38,378.49h12.33v69.02h-12.33V378.49z M785.11,352.57l-0.08,82.62h-22.07
		c-12.79,0-22.07-8.27-22.07-19.65v-62.97h-12.33v39.91c-0.17,23.95-18.57,42.7-41.9,42.7c-19.34,0-33.78-9.52-38.97-25.55h29.15
		c22.1,0,33.66-15.5,33.66-30.81c0-14.5-11.24-29.17-32.73-29.17c-24.09,0-44.45,21.33-44.45,46.57c0,0.36,0,0.71,0.01,1.07H583.4
		v12.33h51.5c5.59,23.05,25.79,37.89,51.76,37.89c17.32,0,33.38-8.16,43.5-21.97c4.38,13.25,17.22,21.97,32.8,21.97h34.4V364.9
		h68.39v-12.33H785.11z M645.68,397.3c-0.01-0.35-0.01-0.71-0.01-1.07c0-18.24,15.01-34.24,32.12-34.24
		c16.13,0,20.39,11.01,20.39,16.84c0,12.69-11.05,18.47-21.32,18.47H645.68z"/>
	<text transform="matrix(1 0 0 1 436.3867 409.3437)"><tspan x="0" y="0" class="st1 st3 st4 st5">M</tspan><tspan x="16.6" y="0" class="st1 st3 st4 st5">IEMBRO DE</tspan></text>
</g>
</svg>
